REM DIRINDEX 1\2,1\3,1\4,1\5
REM DIRNAME cjc004,folder01,folder02,folder03,folder04
TITLE ""
FILE "1Q_t_0243-0252.mp3" MP3
  TRACK 01 AUDIO
    TITLE "3:cjc004_1630"
    INDEX 01 00:00:00
  TRACK 02 AUDIO
    TITLE "0:"
    INDEX 01 00:00:72
  TRACK 03 AUDIO
    TITLE "4:cjc004_1631"
    INDEX 01 00:01:17
  TRACK 04 AUDIO
    TITLE "0:"
    INDEX 01 00:02:24
  TRACK 05 AUDIO
    TITLE "5:cjc004_1632"
    INDEX 01 00:02:51
  TRACK 06 AUDIO
    TITLE "0:"
    INDEX 01 00:06:49
  TRACK 07 AUDIO
    TITLE "3:cjc004_1633"
    INDEX 01 00:07:31
  TRACK 08 AUDIO
    TITLE "0:"
    INDEX 01 00:08:54
  TRACK 09 AUDIO
    TITLE "4:cjc004_1634"
    INDEX 01 00:08:64
  TRACK 10 AUDIO
    TITLE "0:"
    INDEX 01 00:10:06
  TRACK 11 AUDIO
    TITLE "5:cjc004_1635"
    INDEX 01 00:10:33
  TRACK 12 AUDIO
    TITLE "0:"
    INDEX 01 00:15:54
  TRACK 13 AUDIO
    TITLE "3:cjc004_1636"
    INDEX 01 00:16:32
  TRACK 14 AUDIO
    TITLE "0:"
    INDEX 01 00:17:57
  TRACK 15 AUDIO
    TITLE "4:cjc004_1637"
    INDEX 01 00:18:09
  TRACK 16 AUDIO
    TITLE "0:"
    INDEX 01 00:19:26
  TRACK 17 AUDIO
    TITLE "5:cjc004_1638"
    INDEX 01 00:19:58
  TRACK 18 AUDIO
    TITLE "0:"
    INDEX 01 00:26:15
  TRACK 19 AUDIO
    TITLE "3:cjc004_1639"
    INDEX 01 00:26:69
  TRACK 20 AUDIO
    TITLE "0:"
    INDEX 01 00:28:02
  TRACK 21 AUDIO
    TITLE "4:cjc004_1640"
    INDEX 01 00:28:37
  TRACK 22 AUDIO
    TITLE "0:"
    INDEX 01 00:29:46
  TRACK 23 AUDIO
    TITLE "5:cjc004_1641"
    INDEX 01 00:29:74
  TRACK 24 AUDIO
    TITLE "0:"
    INDEX 01 00:34:18
  TRACK 25 AUDIO
    TITLE "3:cjc004_1642"
    INDEX 01 00:34:73
  TRACK 26 AUDIO
    TITLE "0:"
    INDEX 01 00:36:09
  TRACK 27 AUDIO
    TITLE "4:cjc004_1643"
    INDEX 01 00:36:46
  TRACK 28 AUDIO
    TITLE "0:"
    INDEX 01 00:38:33
  TRACK 29 AUDIO
    TITLE "5:cjc004_1644"
    INDEX 01 00:38:59
  TRACK 30 AUDIO
    TITLE "0:"
    INDEX 01 00:42:57
  TRACK 31 AUDIO
    TITLE "3:cjc004_1645"
    INDEX 01 00:43:33
  TRACK 32 AUDIO
    TITLE "0:"
    INDEX 01 00:44:56
  TRACK 33 AUDIO
    TITLE "4:cjc004_1646"
    INDEX 01 00:45:20
  TRACK 34 AUDIO
    TITLE "0:"
    INDEX 01 00:46:21
  TRACK 35 AUDIO
    TITLE "5:cjc004_1647"
    INDEX 01 00:46:51
  TRACK 36 AUDIO
    TITLE "0:"
    INDEX 01 00:52:36
  TRACK 37 AUDIO
    TITLE "3:cjc004_1648"
    INDEX 01 00:53:13
  TRACK 38 AUDIO
    TITLE "0:"
    INDEX 01 00:54:21
  TRACK 39 AUDIO
    TITLE "4:cjc004_1649"
    INDEX 01 00:54:40
  TRACK 40 AUDIO
    TITLE "0:"
    INDEX 01 00:55:53
  TRACK 41 AUDIO
    TITLE "5:cjc004_1650"
    INDEX 01 00:56:04
  TRACK 42 AUDIO
    TITLE "0:"
    INDEX 01 00:59:63
  TRACK 43 AUDIO
    TITLE "3:cjc004_1651"
    INDEX 01 01:00:43
  TRACK 44 AUDIO
    TITLE "0:"
    INDEX 01 01:01:56
  TRACK 45 AUDIO
    TITLE "4:cjc004_1652"
    INDEX 01 01:02:06
  TRACK 46 AUDIO
    TITLE "0:"
    INDEX 01 01:03:20
  TRACK 47 AUDIO
    TITLE "5:cjc004_1653"
    INDEX 01 01:03:53
  TRACK 48 AUDIO
    TITLE "0:"
    INDEX 01 01:08:44
  TRACK 49 AUDIO
    TITLE "3:cjc004_1654"
    INDEX 01 01:09:32
  TRACK 50 AUDIO
    TITLE "0:"
    INDEX 01 01:10:41
  TRACK 51 AUDIO
    TITLE "4:cjc004_1655"
    INDEX 01 01:10:65
  TRACK 52 AUDIO
    TITLE "0:"
    INDEX 01 01:11:74
  TRACK 53 AUDIO
    TITLE "5:cjc004_1656"
    INDEX 01 01:12:26
  TRACK 54 AUDIO
    TITLE "0:"
    INDEX 01 01:17:45
  TRACK 55 AUDIO
    TITLE "3:cjc004_1657"
    INDEX 01 01:18:23
  TRACK 56 AUDIO
    TITLE "0:"
    INDEX 01 01:19:28
  TRACK 57 AUDIO
    TITLE "4:cjc004_1658"
    INDEX 01 01:19:60
  TRACK 58 AUDIO
    TITLE "0:"
    INDEX 01 01:21:00
  TRACK 59 AUDIO
    TITLE "5:cjc004_1659"
    INDEX 01 01:21:23
  TRACK 60 AUDIO
    TITLE "0:"
    INDEX 01 01:26:72
